<svg width="64" height="16" viewBox="0 0 64 16" fill="none" xmlns="http://www.w3.org/2000/svg">
<path d="M1.2 15.1162C1.06667 15.1162 0.953333 15.0762 0.86 14.9962C0.78 14.9029 0.74 14.7895 0.74 14.6562V1.59621C0.74 1.44954 0.78 1.33621 0.86 1.25621C0.953333 1.16288 1.06667 1.11621 1.2 1.11621H2.2C2.41333 1.11621 2.58667 1.22288 2.72 1.43621L6.94 9.51621L11.2 1.43621C11.2267 1.35621 11.28 1.28288 11.36 1.21621C11.4533 1.14954 11.5667 1.11621 11.7 1.11621H12.68C12.8267 1.11621 12.94 1.16288 13.02 1.25621C13.1133 1.33621 13.16 1.44954 13.16 1.59621V14.6562C13.16 14.7895 13.1133 14.9029 13.02 14.9962C12.9267 15.0762 12.8133 15.1162 12.68 15.1162H11.7C11.5667 15.1162 11.4533 15.0762 11.36 14.9962C11.28 14.9029 11.24 14.7895 11.24 14.6562V4.81621L7.9 11.3362C7.76667 11.6162 7.55333 11.7562 7.26 11.7562H6.64C6.34667 11.7562 6.13333 11.6162 6 11.3362L2.64 4.81621V14.6562C2.64 14.7895 2.59333 14.9029 2.5 14.9962C2.42 15.0762 2.31333 15.1162 2.18 15.1162H1.2ZM19.2589 15.3162C18.6056 15.3162 17.9989 15.1829 17.4389 14.9162C16.8789 14.6495 16.4322 14.2895 16.0989 13.8362C15.7789 13.3695 15.6189 12.8562 15.6189 12.2962C15.6189 11.4162 15.9789 10.6962 16.6989 10.1362C17.4322 9.56288 18.4189 9.18954 19.6589 9.01621L22.6389 8.59621V8.01621C22.6389 6.65621 21.8589 5.97621 20.2989 5.97621C19.7122 5.97621 19.2322 6.10288 18.8589 6.35621C18.4856 6.59621 18.2056 6.88288 18.0189 7.21621C17.9789 7.33621 17.9256 7.42288 17.8589 7.47621C17.8056 7.52954 17.7256 7.55621 17.6189 7.55621H16.7589C16.6389 7.55621 16.5322 7.51621 16.4389 7.43621C16.3589 7.34288 16.3189 7.23621 16.3189 7.11621C16.3322 6.79621 16.4789 6.43621 16.7589 6.03621C17.0522 5.62288 17.4989 5.26954 18.0989 4.97621C18.6989 4.66954 19.4389 4.51621 20.3189 4.51621C21.8122 4.51621 22.8856 4.86954 23.5389 5.57621C24.1922 6.26954 24.5189 7.13621 24.5189 8.17621V14.6562C24.5189 14.7895 24.4722 14.9029 24.3789 14.9962C24.2989 15.0762 24.1922 15.1162 24.0589 15.1162H23.1389C23.0056 15.1162 22.8922 15.0762 22.7989 14.9962C22.7189 14.9029 22.6789 14.7895 22.6789 14.6562V13.7962C22.3856 14.2229 21.9589 14.5829 21.3989 14.8762C20.8389 15.1695 20.1256 15.3162 19.2589 15.3162ZM19.6789 13.8162C20.5456 13.8162 21.2522 13.5362 21.7989 12.9762C22.3589 12.4029 22.6389 11.5829 22.6389 10.5162V9.95621L20.3189 10.2962C19.3722 10.4295 18.6589 10.6562 18.1789 10.9762C17.6989 11.2829 17.4589 11.6762 17.4589 12.1562C17.4589 12.6895 17.6789 13.1029 18.1189 13.3962C18.5589 13.6762 19.0789 13.8162 19.6789 13.8162ZM26.9141 15.1162C26.8074 15.1162 26.7074 15.0762 26.6141 14.9962C26.5341 14.9162 26.4941 14.8162 26.4941 14.6962C26.4941 14.5762 26.5407 14.4562 26.6341 14.3362L30.1141 9.79621L26.8541 5.49621C26.7607 5.38954 26.7141 5.26954 26.7141 5.13621C26.7141 5.01621 26.7541 4.91621 26.8341 4.83621C26.9141 4.75621 27.0141 4.71621 27.1341 4.71621H28.1541C28.3541 4.71621 28.5274 4.82288 28.6741 5.03621L31.3341 8.49621L33.9941 5.05621C34.0741 4.94954 34.1474 4.86954 34.2141 4.81621C34.2941 4.74954 34.3941 4.71621 34.5141 4.71621H35.4941C35.6141 4.71621 35.7141 4.75621 35.7941 4.83621C35.8741 4.91621 35.9141 5.01621 35.9141 5.13621C35.9141 5.26954 35.8674 5.38954 35.7741 5.49621L32.4741 9.83621L35.9541 14.3362C36.0474 14.4562 36.0941 14.5762 36.0941 14.6962C36.0941 14.8162 36.0541 14.9162 35.9741 14.9962C35.8941 15.0762 35.7941 15.1162 35.6741 15.1162H34.6141C34.4141 15.1162 34.2407 15.0162 34.0941 14.8162L31.2941 11.1562L28.4541 14.8162C28.3741 14.9095 28.2941 14.9829 28.2141 15.0362C28.1474 15.0895 28.0541 15.1162 27.9341 15.1162H26.9141ZM43.8353 15.3162C41.9286 15.3162 40.4353 14.8562 39.3553 13.9362C38.2886 13.0029 37.722 11.6562 37.6553 9.89621C37.642 9.53621 37.6353 8.94954 37.6353 8.13621C37.6353 7.30954 37.642 6.70954 37.6553 6.33621C37.722 4.60288 38.302 3.26954 39.3953 2.33621C40.4886 1.38954 41.9686 0.91621 43.8353 0.91621C45.0086 0.91621 46.062 1.11621 46.9953 1.51621C47.9286 1.90288 48.662 2.46288 49.1953 3.19621C49.742 3.91621 50.022 4.76288 50.0353 5.73621V5.77621C50.0353 5.88288 49.9886 5.97621 49.8953 6.05621C49.8153 6.12288 49.722 6.15621 49.6153 6.15621H46.9153C46.742 6.15621 46.6086 6.12288 46.5153 6.05621C46.422 5.97621 46.342 5.83621 46.2753 5.63621C46.0886 4.95621 45.7953 4.48288 45.3953 4.21621C44.9953 3.93621 44.4686 3.79621 43.8153 3.79621C42.242 3.79621 41.4286 4.67621 41.3753 6.43621C41.362 6.79621 41.3553 7.34954 41.3553 8.09621C41.3553 8.84288 41.362 9.40954 41.3753 9.79621C41.4286 11.5562 42.242 12.4362 43.8153 12.4362C44.4686 12.4362 45.002 12.2962 45.4153 12.0162C45.8286 11.7229 46.1153 11.2495 46.2753 10.5962C46.3286 10.3962 46.402 10.2629 46.4953 10.1962C46.5886 10.1162 46.7286 10.0762 46.9153 10.0762H49.6153C49.7353 10.0762 49.8353 10.1162 49.9153 10.1962C50.0086 10.2762 50.0486 10.3762 50.0353 10.4962C50.022 11.4695 49.742 12.3229 49.1953 13.0562C48.662 13.7762 47.9286 14.3362 46.9953 14.7362C46.062 15.1229 45.0086 15.3162 43.8353 15.3162ZM50.9686 15.1162C50.8486 15.1162 50.7419 15.0762 50.6486 14.9962C50.5686 14.9029 50.5286 14.8029 50.5286 14.6962C50.5286 14.6029 50.5553 14.5229 50.6086 14.4562L54.9686 7.97621L50.9286 1.77621C50.8886 1.69621 50.8686 1.61621 50.8686 1.53621C50.8686 1.42954 50.9086 1.33621 50.9886 1.25621C51.0686 1.16288 51.1686 1.11621 51.2886 1.11621H54.1886C54.3486 1.11621 54.4819 1.15621 54.5886 1.23621C54.6953 1.31621 54.7953 1.41621 54.8886 1.53621L57.2686 5.15621L59.6886 1.53621C59.8619 1.25621 60.0953 1.11621 60.3886 1.11621H63.1486C63.2553 1.11621 63.3486 1.16288 63.4286 1.25621C63.5219 1.33621 63.5686 1.42954 63.5686 1.53621C63.5686 1.62954 63.5419 1.70954 63.4886 1.77621L59.4286 7.95621L63.8286 14.4562C63.8686 14.5095 63.8886 14.5895 63.8886 14.6962C63.8886 14.8029 63.8486 14.9029 63.7686 14.9962C63.6886 15.0762 63.5886 15.1162 63.4686 15.1162H60.4886C60.2086 15.1162 59.9753 14.9829 59.7886 14.7162L57.1486 10.8762L54.5286 14.7162C54.3819 14.9829 54.1553 15.1162 53.8486 15.1162H50.9686Z" fill="#0B132A"/>
</svg>
