<svg width="14" height="10" viewBox="0 0 14 10" fill="none" xmlns="http://www.w3.org/2000/svg">
<path d="M5.6663 9.27956C5.53504 9.27983 5.40501 9.25417 5.28368 9.20406C5.16236 9.15395 5.05212 9.08038 4.9593 8.98756L0.717301 4.74456C0.621728 4.65238 0.545469 4.54209 0.492976 4.42013C0.440482 4.29816 0.412805 4.16696 0.411558 4.03418C0.410312 3.9014 0.435521 3.76971 0.485715 3.64678C0.535909 3.52385 0.610082 3.41214 0.703908 3.31819C0.797733 3.22423 0.909331 3.1499 1.03219 3.09953C1.15505 3.04916 1.28671 3.02377 1.41949 3.02482C1.55227 3.02588 1.68351 3.05337 1.80555 3.1057C1.92759 3.15802 2.03799 3.23412 2.1303 3.32956L5.6653 6.86456L12.0303 0.501562C12.2178 0.313921 12.4722 0.208453 12.7374 0.208359C13.0027 0.208265 13.2572 0.313553 13.4448 0.501061C13.6324 0.68857 13.7379 0.942938 13.738 1.20821C13.7381 1.47348 13.6328 1.72792 13.4453 1.91556L6.3733 8.98756C6.28048 9.08038 6.17024 9.15395 6.04892 9.20406C5.92759 9.25417 5.79757 9.27983 5.6663 9.27956Z" fill="#2FAB73"/>
</svg>
